<svg width="46" height="46" viewBox="0 0 46 46" fill="none" xmlns="http://www.w3.org/2000/svg">
<path d="M5.75 21.0833C5.75 13.8556 5.75 10.2407 7.99633 7.99633C10.2407 5.75 13.8556 5.75 21.0833 5.75H24.9167C32.1444 5.75 35.7592 5.75 38.0037 7.99633C40.25 10.2407 40.25 13.8556 40.25 21.0833V24.9167C40.25 32.1444 40.25 35.7592 38.0037 38.0037C35.7592 40.25 32.1444 40.25 24.9167 40.25H21.0833C13.8556 40.25 10.2407 40.25 7.99633 38.0037C5.75 35.7592 5.75 32.1444 5.75 24.9167V21.0833Z" stroke="#D9D9D9" stroke-width="2"/>
<path d="M31.625 17.25C33.2128 17.25 34.5 15.9628 34.5 14.375C34.5 12.7872 33.2128 11.5 31.625 11.5C30.0372 11.5 28.75 12.7872 28.75 14.375C28.75 15.9628 30.0372 17.25 31.625 17.25Z" fill="#D9D9D9"/>
<path d="M23 28.75C26.1756 28.75 28.75 26.1756 28.75 23C28.75 19.8244 26.1756 17.25 23 17.25C19.8244 17.25 17.25 19.8244 17.25 23C17.25 26.1756 19.8244 28.75 23 28.75Z" stroke="#D9D9D9" stroke-width="2"/>
</svg>
