<svg width="46" height="46" viewBox="0 0 46 46" fill="none" xmlns="http://www.w3.org/2000/svg">
<path d="M43.0483 11.4998C41.5725 12.1707 39.9817 12.6115 38.3333 12.8223C40.02 11.8065 41.3233 10.1965 41.9367 8.26067C40.3458 9.219 38.5825 9.88984 36.7233 10.2732C35.2092 8.62484 33.0817 7.6665 30.6667 7.6665C26.1625 7.6665 22.4825 11.3465 22.4825 15.889C22.4825 16.5407 22.5592 17.1732 22.6933 17.7673C15.87 17.4223 9.79416 14.1448 5.74999 9.18067C5.04083 10.3882 4.63833 11.8065 4.63833 13.3015C4.63833 16.1573 6.07583 18.6873 8.29916 20.1248C6.93833 20.1248 5.67333 19.7415 4.56166 19.1665V19.224C4.56166 23.2107 7.39833 26.5457 11.155 27.2932C9.94889 27.6232 8.68268 27.6692 7.45583 27.4273C7.97641 29.0613 8.99594 30.491 10.3711 31.5155C11.7463 32.54 13.4079 33.1077 15.1225 33.139C12.2161 35.4398 8.61349 36.6835 4.90666 36.6657C4.25499 36.6657 3.60333 36.6273 2.95166 36.5507C6.59333 38.889 10.925 40.2498 15.5633 40.2498C30.6667 40.2498 38.9658 27.7148 38.9658 16.8473C38.9658 16.4832 38.9658 16.1382 38.9467 15.774C40.5567 14.624 41.9367 13.1673 43.0483 11.4998Z" fill="#D9D9D9"/>
</svg>
