<svg width="46" height="46" viewBox="0 0 46 46" fill="none" xmlns="http://www.w3.org/2000/svg">
<path d="M19.1666 28.7502L29.1141 23.0002L19.1666 17.2502V28.7502ZM41.3233 13.7427C41.5725 14.6435 41.745 15.851 41.86 17.3843C41.9941 18.9177 42.0516 20.2402 42.0516 21.3902L42.1666 23.0002C42.1666 27.1977 41.86 30.2835 41.3233 32.2577C40.8441 33.9827 39.7325 35.0943 38.0075 35.5735C37.1066 35.8227 35.4583 35.9952 32.9283 36.1102C30.4366 36.2443 28.1558 36.3018 26.0475 36.3018L23 36.4168C14.9691 36.4168 9.96665 36.1102 7.99248 35.5735C6.26748 35.0943 5.15581 33.9827 4.67665 32.2577C4.42748 31.3568 4.25498 30.1493 4.13998 28.616C4.00581 27.0827 3.94831 25.7602 3.94831 24.6102L3.83331 23.0002C3.83331 18.8027 4.13998 15.7168 4.67665 13.7427C5.15581 12.0177 6.26748 10.906 7.99248 10.4268C8.89331 10.1777 10.5416 10.0052 13.0716 9.89016C15.5633 9.756 17.8441 9.6985 19.9525 9.6985L23 9.5835C31.0308 9.5835 36.0333 9.89016 38.0075 10.4268C39.7325 10.906 40.8441 12.0177 41.3233 13.7427Z" fill="#D9D9D9"/>
</svg>
